<svg width="33" height="32" viewBox="0 0 33 32" fill="none" xmlns="http://www.w3.org/2000/svg">
<g clip-path="url(#clip0_7_2027)">
<path d="M16.8333 32C25.6699 32 32.8333 24.8366 32.8333 16C32.8333 7.16344 25.6699 0 16.8333 0C7.99676 0 0.833313 7.16344 0.833313 16C0.833313 24.8366 7.99676 32 16.8333 32Z" fill="#3B5998"/>
<path d="M20.8562 16.6263H18.0012V27.0858H13.6756V16.6263H11.6183V12.9505H13.6756V10.5718C13.6756 8.87078 14.4836 6.20715 18.0397 6.20715L21.2438 6.22056V9.7886H18.919C18.5377 9.7886 18.0015 9.97912 18.0015 10.7906V12.9539H21.2341L20.8562 16.6263Z" fill="white"/>
</g>
<defs>
<clipPath id="clip0_7_2027">
<rect width="32" height="32" fill="white" transform="translate(0.833313)"/>
</clipPath>
</defs>
</svg>
