<svg width="33" height="32" viewBox="0 0 33 32" fill="none" xmlns="http://www.w3.org/2000/svg">
<g clip-path="url(#clip0_7_2036)">
<circle cx="16.8333" cy="16" r="12" fill="#FDFDFE"/>
<path d="M21.6024 8.51355H12.0649C10.5426 8.51355 9.30405 9.75208 9.30405 11.2744V20.8119C9.30405 22.3342 10.5426 23.5731 12.0649 23.5731H21.6024C23.1247 23.5731 24.3636 22.3345 24.3636 20.8119V11.2744C24.3636 9.75208 23.125 8.51355 21.6024 8.51355ZM16.8336 21.0008C14.1002 21.0008 11.8763 18.7769 11.8763 16.0431C11.8763 13.3097 14.1002 11.0858 16.8336 11.0858C19.5674 11.0858 21.7913 13.3097 21.7913 16.0431C21.7913 18.7765 19.567 21.0008 16.8336 21.0008ZM21.9507 12.1108C21.3036 12.1108 20.7774 11.5846 20.7774 10.9378C20.7774 10.2911 21.3036 9.76491 21.9507 9.76491C22.5974 9.76491 23.1236 10.2911 23.1236 10.9378C23.1236 11.5846 22.5974 12.1108 21.9507 12.1108Z" fill="url(#paint0_linear_7_2036)"/>
<path d="M16.8336 13.1808C15.2556 13.1808 13.9708 14.4649 13.9708 16.0429C13.9708 17.6215 15.2556 18.906 16.8336 18.906C18.4122 18.906 19.696 17.6215 19.696 16.0429C19.696 14.4653 18.4119 13.1808 16.8336 13.1808Z" fill="#E84147"/>
<path d="M16.8333 0C7.99711 0 0.833313 7.1638 0.833313 16C0.833313 24.8362 7.99711 32 16.8333 32C25.6695 32 32.8333 24.8362 32.8333 16C32.8333 7.1638 25.6695 0 16.8333 0ZM26.4578 20.8119C26.4578 23.4896 24.2798 25.6676 21.602 25.6676H12.0646C9.38716 25.6676 7.20886 23.4896 7.20886 20.8119V11.2744C7.20886 8.59698 9.38716 6.41868 12.0646 6.41868H21.602C24.2798 6.41868 26.4578 8.59698 26.4578 11.2744V20.8119Z" fill="url(#paint1_radial_7_2036)"/>
</g>
<defs>
<linearGradient id="paint0_linear_7_2036" x1="10.834" y1="24" x2="23.5007" y2="8.00004" gradientUnits="userSpaceOnUse">
<stop stop-color="#E18129"/>
<stop offset="0.271436" stop-color="#F7591A"/>
<stop offset="0.953125" stop-color="#C106AF"/>
</linearGradient>
<radialGradient id="paint1_radial_7_2036" cx="0" cy="0" r="1" gradientUnits="userSpaceOnUse" gradientTransform="translate(10.1666 27.3333) rotate(-48.8141) scale(28.3471)">
<stop stop-color="#F5DF82"/>
<stop offset="0.258556" stop-color="#DE7627"/>
<stop offset="0.489576" stop-color="#D50453"/>
<stop offset="0.716605" stop-color="#C301A5"/>
<stop offset="0.979167" stop-color="#3333E8"/>
</radialGradient>
<clipPath id="clip0_7_2036">
<rect width="32" height="32" fill="white" transform="translate(0.833313)"/>
</clipPath>
</defs>
</svg>
