<svg width="48" height="38" viewBox="0 0 48 38" fill="none" xmlns="http://www.w3.org/2000/svg">
<path fill-rule="evenodd" clip-rule="evenodd" d="M33.2295 0.890381H42.7105C45.3052 0.890381 47.4069 2.99207 47.4069 5.58679V32.4105C47.4069 35.0102 45.3052 37.1119 42.7105 37.1119H15.8866C13.9293 37.1119 12.2536 35.9184 11.55 34.2162C12.5986 34.1156 13.5528 33.5815 14.1894 32.7256C15.0987 31.5153 16.155 30.6037 17.3253 29.9878C21.7346 27.6893 24.4783 23.1712 24.4783 18.197C24.4783 10.8906 18.5424 4.94064 11.2386 4.91004C11.5665 2.63625 13.5218 0.890381 15.8867 0.890381H25.3671V4.38876C25.3671 5.06929 25.924 5.62091 26.5992 5.62091H31.9974C32.6778 5.62091 33.2295 5.06929 33.2295 4.38876V0.890381ZM29.9875 29.5663V32.4873C29.9875 32.8957 30.319 33.2271 30.7274 33.2271H41.6443C42.0528 33.2271 42.3842 32.8957 42.3842 32.4873V29.5663C42.3842 29.1578 42.0529 28.8264 41.6443 28.8264H30.7274C30.319 28.8265 29.9875 29.1578 29.9875 29.5663Z" fill="#9D7B6D"/>
<path fill-rule="evenodd" clip-rule="evenodd" d="M10.3444 31.1183C9.23015 29.6125 7.78452 28.4003 6.14334 27.512C2.49955 25.5394 0.150553 21.4967 0.662428 16.9568C1.21199 12.1235 5.12708 8.21613 9.96037 7.67397C16.3672 6.95885 21.7803 11.9579 21.7803 18.199C21.7803 22.2946 19.469 25.8331 16.0737 27.6023C14.4775 28.438 13.1149 29.6652 12.0307 31.1107L12.0271 31.1157C11.6086 31.6799 10.7646 31.6812 10.3444 31.1183ZM11.1873 23.1714C8.44621 23.1714 6.21478 20.9463 6.21478 18.1988C6.21478 15.4578 8.44631 13.2263 11.1873 13.2263C13.9349 13.2263 16.16 15.4578 16.16 18.1988C16.16 20.9464 13.9349 23.1714 11.1873 23.1714Z" fill="#EA0C0C"/>
</svg>
