<svg width="160" height="32" viewBox="0 0 160 32" fill="none" xmlns="http://www.w3.org/2000/svg">
<path d="M16.2584 22.5986L16 22.4426L15.7417 22.5986L8.51615 26.9596L10.4336 18.7402L10.5022 18.4463L10.2741 18.2487L3.88977 12.718L12.2956 12.0048L12.5961 11.9793L12.7137 11.7017L16 3.94792L19.2863 11.7017L19.404 11.9793L19.7044 12.0048L28.1103 12.718L21.726 18.2487L21.4979 18.4463L21.5664 18.7402L23.4839 26.9596L16.2584 22.5986Z" fill="#F2C94C" stroke="#F2C94C"/>
<path d="M48.2584 22.5986L48 22.4426L47.7417 22.5986L40.5162 26.9596L42.4336 18.7402L42.5022 18.4463L42.2741 18.2487L35.8898 12.718L44.2956 12.0048L44.5961 11.9793L44.7137 11.7017L48 3.94792L51.2863 11.7017L51.404 11.9793L51.7044 12.0048L60.1103 12.718L53.726 18.2487L53.4979 18.4463L53.5664 18.7402L55.4839 26.9596L48.2584 22.5986Z" fill="#F2C94C" stroke="#F2C94C"/>
<path d="M80.2584 22.5986L80 22.4426L79.7417 22.5986L72.5162 26.9596L74.4336 18.7402L74.5022 18.4463L74.2741 18.2487L67.8898 12.718L76.2956 12.0048L76.5961 11.9793L76.7137 11.7017L80 3.94792L83.2863 11.7017L83.404 11.9793L83.7044 12.0048L92.1103 12.718L85.726 18.2487L85.4979 18.4463L85.5664 18.7402L87.4839 26.9596L80.2584 22.5986Z" fill="#F2C94C" stroke="#F2C94C"/>
<path d="M112.258 22.5986L112 22.4426L111.742 22.5986L104.516 26.9596L106.434 18.7402L106.502 18.4463L106.274 18.2487L99.8898 12.718L108.296 12.0048L108.596 11.9793L108.714 11.7017L112 3.94792L115.286 11.7017L115.404 11.9793L115.704 12.0048L124.11 12.718L117.726 18.2487L117.498 18.4463L117.566 18.7402L119.484 26.9596L112.258 22.5986Z" fill="#F2C94C" stroke="#F2C94C"/>
<path d="M147.286 11.6887L147.404 11.9656L147.704 11.9914L156.113 12.7166L149.739 18.249L149.512 18.4463L149.58 18.7396L151.486 26.9607L144.258 22.5986L144 22.4426L143.742 22.5986L136.516 26.9596L138.434 18.7402L138.502 18.4463L138.274 18.2487L131.89 12.718L140.296 12.0048L140.596 11.9793L140.714 11.7017L144 3.9471L147.286 11.6887ZM138.5 23.4462L138.23 24.6008L139.245 23.988L144 21.1175L148.768 24.0011L149.784 24.6154L149.514 23.4595L148.249 18.0466L152.448 14.4043L153.34 13.6306L152.163 13.5285L146.623 13.0478L144.46 7.9384L143.999 6.8487L143.539 7.93896L141.39 13.0346L135.85 13.5152L134.674 13.6172L135.566 14.391L139.764 18.0333L138.5 23.4462Z" fill="#F2C94C" stroke="#F2C94C"/>
</svg>
