<svg width="33" height="32" viewBox="0 0 33 32" fill="none" xmlns="http://www.w3.org/2000/svg">
<g clip-path="url(#clip0_2_1999)">
<path d="M16.7962 31.9999C25.6327 31.9999 32.796 24.8365 32.796 16.0001C32.796 7.1636 25.6327 0.000244141 16.7962 0.000244141C7.95975 0.000244141 0.796387 7.1636 0.796387 16.0001C0.796387 24.8365 7.95975 31.9999 16.7962 31.9999Z" fill="#41B4E6"/>
<path d="M15.2419 18.3315L22.4726 23.7907L26.1225 8.21021L7.46896 15.5477L13.145 17.4277L23.504 10.4792L15.2419 18.3315Z" fill="white"/>
<path d="M13.1458 17.4275L14.7003 23.0215L15.2427 18.3313L23.5047 10.479L13.1458 17.4275Z" fill="#D2D2D7"/>
<path d="M17.5926 20.1058L14.7003 23.0218L15.2426 18.3315L17.5926 20.1058Z" fill="#B9B9BE"/>
</g>
<defs>
<clipPath id="clip0_2_1999">
<rect width="32" height="32" fill="white" transform="translate(0.796387)"/>
</clipPath>
</defs>
</svg>
