<svg width="33" height="32" viewBox="0 0 33 32" fill="none" xmlns="http://www.w3.org/2000/svg">
<g clip-path="url(#clip0_2_1989)">
<path d="M16.7964 31.9999C25.6329 31.9999 32.7963 24.8365 32.7963 16C32.7963 7.16343 25.6329 0 16.7964 0C7.95982 0 0.796387 7.16343 0.796387 16C0.796387 24.8365 7.95982 31.9999 16.7964 31.9999Z" fill="#41B4E6"/>
<path d="M22.3952 26.0594H11.1972C8.7336 26.0594 6.73644 24.0623 6.73644 21.5987V10.4007C6.73644 7.9371 8.73354 5.93994 11.1972 5.93994H22.3952C24.8588 5.93994 26.856 7.93704 26.856 10.4007V21.5987C26.8559 24.0623 24.8588 26.0594 22.3952 26.0594Z" fill="#6E64C3"/>
<path d="M15.402 14.2142C15.5562 14.101 15.6587 13.9309 15.6871 13.7417C15.7155 13.5525 15.6671 13.3598 15.5529 13.2064L14.7951 12.1884C14.7062 12.0689 14.5728 11.9905 14.4252 11.9709C14.2776 11.9513 14.1281 11.992 14.0111 12.084C13.8714 12.194 13.715 12.3167 13.567 12.4319C13.2027 12.7157 13.0652 13.2023 13.2264 13.635C14.1158 16.0216 15.9855 17.9142 18.3566 18.8341C18.8443 19.0233 19.3978 18.8276 19.6568 18.3732L19.9479 17.8622C20.091 17.6111 20.0161 17.2922 19.7763 17.1311L18.849 16.5081C18.687 16.3992 18.4876 16.3611 18.2968 16.4022C18.106 16.4434 17.9397 16.5603 17.837 16.7264C17.8067 16.7754 17.7774 16.8231 17.75 16.8674C17.7118 16.9293 17.6502 16.9732 17.5792 16.989C17.5082 17.0048 17.4338 16.9912 17.3729 16.9514C16.4839 16.3692 15.7244 15.6085 15.1439 14.7183C15.0651 14.5975 15.0953 14.4361 15.2125 14.3521C15.2709 14.3102 15.3356 14.263 15.402 14.2142Z" fill="white"/>
<path d="M20.2601 15.5282C20.107 15.5282 19.9829 15.404 19.9829 15.2509C19.9829 13.4259 18.4981 11.9412 16.6732 11.9412C16.5201 11.9412 16.3959 11.817 16.3959 11.664C16.3959 11.5108 16.5201 11.3867 16.6732 11.3867C18.8039 11.3867 20.5374 13.1203 20.5374 15.2509C20.5374 15.404 20.4133 15.5282 20.2601 15.5282Z" fill="white"/>
<path d="M19.3913 15.5284C19.2382 15.5284 19.1141 15.4043 19.1141 15.2512C19.1141 13.9053 18.0191 12.8104 16.6733 12.8104C16.5201 12.8104 16.396 12.6862 16.396 12.5331C16.396 12.38 16.5202 12.2559 16.6733 12.2559C18.3249 12.2559 19.6686 13.5996 19.6686 15.2513C19.6686 15.4043 19.5445 15.5284 19.3913 15.5284Z" fill="white"/>
<path d="M18.5379 15.5286C18.3848 15.5286 18.2606 15.4044 18.2606 15.2513C18.2606 14.376 17.5485 13.6639 16.6732 13.6639C16.52 13.6639 16.3959 13.5397 16.3959 13.3866C16.3959 13.2335 16.5201 13.1094 16.6732 13.1094C17.8543 13.1094 18.8152 14.0703 18.8152 15.2514C18.8152 15.4045 18.691 15.5286 18.5379 15.5286Z" fill="white"/>
<path d="M23.6829 13.8806C23.6829 11.1034 21.4315 8.85205 18.6543 8.85205H15.0941C12.2318 8.85205 9.91156 11.1723 9.91156 14.0346V16.2701C9.91156 18.4784 11.2933 20.3628 13.2389 21.1093V22.8652C13.2389 23.0732 13.3699 23.2619 13.5648 23.3347C13.6214 23.3558 13.6804 23.366 13.7389 23.366C13.8818 23.366 14.0219 23.3051 14.1187 23.1936L15.6289 21.4527H18.6544C21.4316 21.4527 23.6829 19.2013 23.6829 16.4241V13.8806H23.6829ZM22.5122 16.4241C22.5122 18.5514 20.7816 20.282 18.6544 20.282H15.9725L13.9059 22.685C13.8789 22.7164 13.8353 22.7277 13.7964 22.7134C13.7576 22.699 13.7318 22.662 13.7318 22.6205C13.7318 22.1086 13.7318 20.9586 13.7318 20.0435C12.1883 19.4845 11.0823 18.0042 11.0823 16.2701V14.0347C11.0823 11.8225 12.882 10.0228 15.0942 10.0228H18.6544C20.7817 10.0228 22.5123 11.7534 22.5123 13.8806V16.4241H22.5122Z" fill="white"/>
</g>
<defs>
<clipPath id="clip0_2_1989">
<rect width="32" height="32" fill="white" transform="translate(0.796387)"/>
</clipPath>
</defs>
</svg>
