<svg width="33" height="32" viewBox="0 0 33 32" fill="none" xmlns="http://www.w3.org/2000/svg">
<g clip-path="url(#clip0_7_2031)">
<path d="M16.8333 32C25.6699 32 32.8333 24.8366 32.8333 16C32.8333 7.16344 25.6699 0 16.8333 0C7.99676 0 0.833313 7.16344 0.833313 16C0.833313 24.8366 7.99676 32 16.8333 32Z" fill="#4D76A1"/>
<path fill-rule="evenodd" clip-rule="evenodd" d="M16.2289 23.0174H17.4847C17.4847 23.0174 17.8641 22.9758 18.0577 22.767C18.236 22.5753 18.2303 22.2154 18.2303 22.2154C18.2303 22.2154 18.2057 20.5303 18.9878 20.2822C19.7587 20.0378 20.7487 21.9108 21.798 22.631C22.5915 23.176 23.1944 23.0565 23.1944 23.0565L26.0001 23.0174C26.0001 23.0174 27.4678 22.927 26.7719 21.773C26.7149 21.6786 26.3666 20.9194 24.6858 19.3593C22.9266 17.7264 23.1622 17.9905 25.2814 15.166C26.572 13.4459 27.0879 12.3957 26.9268 11.9459C26.773 11.5175 25.8238 11.6308 25.8238 11.6308L22.6648 11.6505C22.6648 11.6505 22.4306 11.6185 22.2569 11.7223C22.0872 11.8242 21.978 12.0615 21.978 12.0615C21.978 12.0615 21.478 13.3926 20.8112 14.5246C19.4045 16.9132 18.8421 17.0393 18.6122 16.891C18.0774 16.5453 18.2109 15.5023 18.2109 14.7613C18.2109 12.4465 18.562 11.4813 17.5272 11.2315C17.1838 11.1485 16.9311 11.0937 16.0529 11.0849C14.9258 11.0732 13.9717 11.0883 13.4315 11.353C13.0722 11.529 12.7949 11.9211 12.9638 11.9437C13.1726 11.9716 13.6454 12.0712 13.8961 12.4126C14.2199 12.8529 14.2085 13.8421 14.2085 13.8421C14.2085 13.8421 14.3944 16.567 13.7741 16.9055C13.3483 17.1377 12.7641 16.6637 11.51 14.4966C10.8674 13.3866 10.3823 12.1596 10.3823 12.1596C10.3823 12.1596 10.2887 11.9303 10.1219 11.8076C9.91939 11.659 9.63646 11.6117 9.63646 11.6117L6.63457 11.6313C6.63457 11.6313 6.18393 11.6439 6.01851 11.8398C5.87133 12.0141 6.00681 12.3746 6.00681 12.3746C6.00681 12.3746 8.35698 17.873 11.018 20.6439C13.4581 23.1843 16.2289 23.0174 16.2289 23.0174Z" fill="white"/>
</g>
<defs>
<clipPath id="clip0_7_2031">
<rect width="32" height="32" fill="white" transform="translate(0.833313)"/>
</clipPath>
</defs>
</svg>
